<svg id="svg" version="1.1" xmlns="http://www.w3.org/2000/svg" xmlns:xlink="http://www.w3.org/1999/xlink" width="400" height="400" viewBox="0, 0, 400,400"><g id="svgg"><path id="path0" d="M102.930 20.941 C 79.824 25.109,62.253 42.125,57.170 65.255 C 56.038 70.408,56.038 329.592,57.170 334.745 C 62.104 357.198,78.739 373.834,101.192 378.767 C 106.335 379.897,294.056 379.897,299.198 378.767 C 321.651 373.834,338.287 357.198,343.220 334.745 C 344.352 329.592,344.352 70.408,343.220 65.255 C 338.345 43.069,322.507 26.983,300.000 21.361 L 296.680 20.531 201.367 20.454 C 119.782 20.388,105.605 20.458,102.930 20.941 M307.031 200.000 L 307.031 332.813 200.000 332.813 L 92.969 332.813 92.969 200.000 L 92.969 67.188 200.000 67.188 L 307.031 67.188 307.031 200.000 M96.875 87.695 L 96.875 105.078 113.867 105.078 L 130.859 105.078 130.859 87.695 L 130.859 70.313 113.867 70.313 L 96.875 70.313 96.875 87.695 M132.422 87.695 L 132.422 105.078 150.586 105.078 L 168.750 105.078 168.750 87.695 L 168.750 70.313 150.586 70.313 L 132.422 70.313 132.422 87.695 M170.313 87.695 L 170.313 105.078 180.371 105.067 L 190.430 105.056 195.297 96.881 C 197.974 92.384,200.198 88.742,200.239 88.786 C 200.280 88.831,201.737 91.240,203.477 94.141 L 206.640 99.414 206.640 84.863 L 206.641 70.313 188.477 70.313 L 170.313 70.313 170.313 87.695 M208.203 86.153 C 208.203 101.864,208.210 102.006,209.082 103.533 L 209.961 105.072 227.246 105.075 L 244.531 105.078 244.531 87.695 L 244.531 70.313 226.367 70.313 L 208.203 70.313 208.203 86.153 M246.094 87.695 L 246.094 105.078 264.258 105.078 L 282.422 105.078 282.422 87.695 L 282.422 70.313 264.258 70.313 L 246.094 70.313 246.094 87.695 M283.984 87.695 L 283.984 105.078 293.945 105.078 L 303.906 105.078 303.906 87.695 L 303.906 70.313 293.945 70.313 L 283.984 70.313 283.984 87.695 M96.875 124.805 L 96.875 142.969 113.867 142.969 L 130.859 142.969 130.859 124.805 L 130.859 106.641 113.867 106.641 L 96.875 106.641 96.875 124.805 M132.422 124.805 L 132.422 142.969 149.978 142.969 L 167.534 142.969 168.142 142.101 C 168.670 141.347,168.750 138.958,168.750 123.937 L 168.750 106.641 150.586 106.641 L 132.422 106.641 132.422 124.805 M170.324 122.559 C 170.333 134.407,170.447 138.286,170.769 137.730 C 171.008 137.320,175.301 130.157,180.311 121.812 L 189.419 106.641 179.866 106.641 L 170.313 106.641 170.324 122.559 M221.816 124.707 L 232.659 142.773 238.595 142.881 L 244.531 142.989 244.531 124.815 L 244.531 106.641 227.752 106.641 L 210.973 106.641 221.816 124.707 M246.094 124.805 L 246.094 142.969 264.258 142.969 L 282.422 142.969 282.422 124.805 L 282.422 106.641 264.258 106.641 L 246.094 106.641 246.094 124.805 M283.984 124.805 L 283.984 142.969 293.945 142.969 L 303.906 142.969 303.906 124.805 L 303.906 106.641 293.945 106.641 L 283.984 106.641 283.984 124.805 M96.875 162.695 L 96.875 180.859 113.867 180.859 L 130.859 180.859 130.859 162.695 L 130.859 144.531 113.867 144.531 L 96.875 144.531 96.875 162.695 M132.422 162.695 L 132.422 180.859 138.608 180.859 L 144.795 180.859 155.600 162.884 C 161.544 152.998,166.406 144.824,166.406 144.720 C 166.406 144.616,158.760 144.531,149.414 144.531 L 132.422 144.531 132.422 162.695 M233.984 144.750 C 233.984 144.949,244.035 161.698,244.382 162.077 C 244.464 162.166,244.531 158.255,244.531 153.385 L 244.531 144.531 239.258 144.531 C 236.357 144.531,233.984 144.630,233.984 144.750 M246.094 154.771 L 246.094 165.010 250.831 172.935 L 255.568 180.859 268.995 180.859 L 282.422 180.859 282.422 162.695 L 282.422 144.531 264.258 144.531 L 246.094 144.531 246.094 154.771 M283.984 162.695 L 283.984 180.859 293.945 180.859 L 303.906 180.859 303.906 162.695 L 303.906 144.531 293.945 144.531 L 283.984 144.531 283.984 162.695 M96.875 200.586 L 96.875 218.750 113.867 218.750 L 130.859 218.750 130.859 200.586 L 130.859 182.422 113.867 182.422 L 96.875 182.422 96.875 200.586 M132.422 200.586 L 132.422 218.750 149.414 218.750 L 166.406 218.750 166.406 200.586 C 166.406 190.596,166.274 182.427,166.113 182.433 C 165.952 182.439,160.283 183.640,153.516 185.102 C 140.368 187.942,140.486 187.936,141.908 185.673 C 142.424 184.852,143.055 183.784,143.312 183.301 L 143.777 182.422 138.100 182.422 L 132.422 182.422 132.422 200.586 M233.594 200.586 L 233.594 218.750 239.063 218.750 L 244.531 218.750 244.531 201.653 L 244.531 184.555 239.355 183.486 C 236.509 182.898,234.048 182.418,233.887 182.419 C 233.726 182.421,233.594 190.596,233.594 200.586 M257.079 183.301 C 257.335 183.784,257.957 184.835,258.460 185.637 C 259.843 187.840,259.758 187.861,254.199 186.668 C 251.353 186.057,248.364 185.444,247.559 185.307 L 246.094 185.056 246.094 201.903 L 246.094 218.750 264.258 218.750 L 282.422 218.750 282.422 200.586 L 282.422 182.422 269.518 182.422 L 256.613 182.422 257.079 183.301 M283.984 200.586 L 283.984 218.750 293.945 218.750 L 303.906 218.750 303.906 200.586 L 303.906 182.422 293.945 182.422 L 283.984 182.422 283.984 200.586 M96.875 238.477 L 96.875 256.641 113.867 256.641 L 130.859 256.641 130.859 238.477 L 130.859 220.313 113.867 220.313 L 96.875 220.313 96.875 238.477 M132.422 238.477 L 132.422 256.641 149.414 256.641 L 166.406 256.641 166.406 238.477 L 166.406 220.313 149.414 220.313 L 132.422 220.313 132.422 238.477 M233.594 238.477 L 233.594 256.641 239.063 256.641 L 244.531 256.641 244.531 238.477 L 244.531 220.313 239.063 220.313 L 233.594 220.313 233.594 238.477 M246.094 238.477 L 246.094 256.641 264.258 256.641 L 282.422 256.641 282.422 238.477 L 282.422 220.313 264.258 220.313 L 246.094 220.313 246.094 238.477 M283.984 238.477 L 283.984 256.641 293.945 256.641 L 303.906 256.641 303.906 238.477 L 303.906 220.313 293.945 220.313 L 283.984 220.313 283.984 238.477 M96.875 276.367 L 96.875 294.531 113.867 294.531 L 130.859 294.531 130.859 276.367 L 130.859 258.203 113.867 258.203 L 96.875 258.203 96.875 276.367 M132.422 276.367 L 132.422 294.531 150.586 294.531 L 168.750 294.531 168.750 293.408 C 168.750 292.791,168.474 291.517,168.136 290.576 C 166.672 286.499,166.406 283.437,166.406 270.669 L 166.406 258.203 149.414 258.203 L 132.422 258.203 132.422 276.367 M233.594 270.669 C 233.594 284.141,233.344 286.612,231.481 291.550 C 230.924 293.026,230.469 294.301,230.469 294.382 C 230.469 294.464,233.633 294.531,237.500 294.531 L 244.531 294.531 244.531 276.367 L 244.531 258.203 239.063 258.203 L 233.594 258.203 233.594 270.669 M246.094 276.367 L 246.094 294.531 264.258 294.531 L 282.422 294.531 282.422 276.367 L 282.422 258.203 264.258 258.203 L 246.094 258.203 246.094 276.367 M283.984 276.367 L 283.984 294.531 293.945 294.531 L 303.906 294.531 303.906 276.367 L 303.906 258.203 293.945 258.203 L 283.984 258.203 283.984 276.367 M96.875 313.281 L 96.875 330.469 113.867 330.469 L 130.859 330.469 130.859 313.281 L 130.859 296.094 113.867 296.094 L 96.875 296.094 96.875 313.281 M132.422 313.281 L 132.422 330.469 150.586 330.469 L 168.750 330.469 168.750 313.281 L 168.750 296.094 150.586 296.094 L 132.422 296.094 132.422 313.281 M170.313 313.203 L 170.313 330.469 188.477 330.469 L 206.641 330.469 206.641 321.721 L 206.641 312.973 201.855 313.175 C 189.761 313.686,178.724 308.355,172.460 298.978 C 171.616 297.714,170.787 296.513,170.619 296.309 C 170.450 296.104,170.313 303.707,170.313 313.203 M227.807 298.612 C 223.662 304.916,217.850 309.101,208.887 312.236 C 208.262 312.455,208.203 313.255,208.203 321.472 L 208.203 330.469 226.367 330.469 L 244.531 330.469 244.531 313.281 L 244.531 296.094 236.997 296.094 L 229.463 296.094 227.807 298.612 M246.094 313.281 L 246.094 330.469 264.258 330.469 L 282.422 330.469 282.422 313.281 L 282.422 296.094 264.258 296.094 L 246.094 296.094 246.094 313.281 M283.984 313.281 L 283.984 330.469 293.945 330.469 L 303.906 330.469 303.906 313.281 L 303.906 296.094 293.945 296.094 L 283.984 296.094 283.984 313.281 " stroke="none" fill="#fbfbfc" fill-rule="evenodd"></path><path id="path1" d="M92.969 200.000 L 92.969 332.813 200.000 332.813 L 307.031 332.813 307.031 200.000 L 307.031 67.188 200.000 67.188 L 92.969 67.188 92.969 200.000 M130.859 87.695 L 130.859 105.078 113.867 105.078 L 96.875 105.078 96.875 87.695 L 96.875 70.313 113.867 70.313 L 130.859 70.313 130.859 87.695 M168.750 87.695 L 168.750 105.078 150.586 105.078 L 132.422 105.078 132.422 87.695 L 132.422 70.313 150.586 70.313 L 168.750 70.313 168.750 87.695 M206.628 85.059 L 206.616 99.805 205.645 98.242 C 205.111 97.383,203.671 94.988,202.444 92.920 L 200.212 89.160 195.496 97.021 L 190.780 104.883 180.546 104.987 L 170.313 105.091 170.313 87.702 L 170.313 70.313 188.477 70.313 L 206.641 70.313 206.628 85.059 M244.531 87.695 L 244.531 105.078 227.143 105.078 L 209.754 105.078 208.980 103.809 C 208.242 102.597,208.206 101.800,208.205 86.426 L 208.203 70.313 226.367 70.313 L 244.531 70.313 244.531 87.695 M282.422 87.695 L 282.422 105.078 264.258 105.078 L 246.094 105.078 246.094 87.695 L 246.094 70.313 264.258 70.313 L 282.422 70.313 282.422 87.695 M303.906 87.695 L 303.906 105.078 293.945 105.078 L 283.984 105.078 283.984 87.695 L 283.984 70.313 293.945 70.313 L 303.906 70.313 303.906 87.695 M130.859 124.805 L 130.859 142.969 113.867 142.969 L 96.875 142.969 96.875 124.805 L 96.875 106.641 113.867 106.641 L 130.859 106.641 130.859 124.805 M168.750 124.049 C 168.750 135.302,168.607 141.725,168.346 142.213 C 167.955 142.943,167.340 142.969,150.182 142.969 L 132.422 142.969 132.422 124.805 L 132.422 106.641 150.586 106.641 L 168.750 106.641 168.750 124.049 M189.453 106.871 C 189.453 107.091,171.930 136.458,170.835 138.075 C 170.395 138.724,170.313 136.306,170.313 122.743 L 170.313 106.641 179.883 106.641 C 185.146 106.641,189.453 106.744,189.453 106.871 M244.531 124.805 L 244.531 142.969 238.498 142.969 L 232.464 142.969 221.701 125.035 C 215.781 115.171,210.938 106.998,210.938 106.871 C 210.938 106.744,218.496 106.641,227.734 106.641 L 244.531 106.641 244.531 124.805 M282.422 124.805 L 282.422 142.969 264.258 142.969 L 246.094 142.969 246.094 124.805 L 246.094 106.641 264.258 106.641 L 282.422 106.641 282.422 124.805 M303.906 124.805 L 303.906 142.969 293.945 142.969 L 283.984 142.969 283.984 124.805 L 283.984 106.641 293.945 106.641 L 303.906 106.641 303.906 124.805 M130.859 162.695 L 130.859 180.859 113.867 180.859 L 96.875 180.859 96.875 162.695 L 96.875 144.531 113.867 144.531 L 130.859 144.531 130.859 162.695 M166.732 144.883 C 166.660 145.077,161.768 153.250,155.859 163.045 L 145.117 180.855 138.770 180.857 L 132.422 180.859 132.422 162.695 L 132.422 144.531 149.642 144.531 C 159.700 144.531,166.808 144.678,166.732 144.883 M244.531 153.809 L 244.531 163.086 239.062 153.975 C 236.055 148.963,233.594 144.788,233.594 144.697 C 233.594 144.606,236.055 144.531,239.063 144.531 L 244.531 144.531 244.531 153.809 M282.422 162.695 L 282.422 180.859 268.847 180.859 L 255.272 180.859 250.683 173.213 L 246.094 165.568 246.094 155.049 L 246.094 144.531 264.258 144.531 L 282.422 144.531 282.422 162.695 M303.906 162.695 L 303.906 180.859 293.945 180.859 L 283.984 180.859 283.984 162.695 L 283.984 144.531 293.945 144.531 L 303.906 144.531 303.906 162.695 M130.859 200.586 L 130.859 218.750 113.867 218.750 L 96.875 218.750 96.875 200.586 L 96.875 182.422 113.867 182.422 L 130.859 182.422 130.859 200.586 M143.674 183.301 C 142.102 185.781,141.331 187.163,141.459 187.272 C 141.538 187.339,146.787 186.276,153.125 184.910 C 159.463 183.544,165.044 182.426,165.527 182.424 L 166.406 182.422 166.406 200.586 L 166.406 218.750 149.414 218.750 L 132.422 218.750 132.422 200.586 L 132.422 182.422 138.326 182.422 L 144.230 182.422 143.674 183.301 M239.471 183.218 C 241.502 183.656,243.472 184.107,243.848 184.221 C 244.485 184.414,244.531 185.584,244.531 201.589 L 244.531 218.750 239.063 218.750 L 233.594 218.750 233.594 200.586 L 233.594 182.422 234.686 182.422 C 235.287 182.422,237.440 182.780,239.471 183.218 M282.422 200.586 L 282.422 218.750 264.258 218.750 L 246.094 218.750 246.094 201.714 L 246.094 184.679 247.363 184.929 C 248.062 185.067,250.962 185.682,253.809 186.295 C 259.130 187.441,259.346 187.433,258.469 186.122 C 258.185 185.698,257.555 184.692,257.069 183.887 L 256.186 182.422 269.304 182.422 L 282.422 182.422 282.422 200.586 M303.906 200.586 L 303.906 218.750 293.945 218.750 L 283.984 218.750 283.984 200.586 L 283.984 182.422 293.945 182.422 L 303.906 182.422 303.906 200.586 M130.859 238.477 L 130.859 256.641 113.867 256.641 L 96.875 256.641 96.875 238.477 L 96.875 220.313 113.867 220.313 L 130.859 220.313 130.859 238.477 M166.406 238.477 L 166.406 256.641 149.414 256.641 L 132.422 256.641 132.422 238.477 L 132.422 220.313 149.414 220.313 L 166.406 220.313 166.406 238.477 M244.531 238.477 L 244.531 256.641 239.063 256.641 L 233.594 256.641 233.594 238.477 L 233.594 220.313 239.063 220.313 L 244.531 220.313 244.531 238.477 M282.422 238.477 L 282.422 256.641 264.258 256.641 L 246.094 256.641 246.094 238.477 L 246.094 220.313 264.258 220.313 L 282.422 220.313 282.422 238.477 M303.906 238.477 L 303.906 256.641 293.945 256.641 L 283.984 256.641 283.984 238.477 L 283.984 220.313 293.945 220.313 L 303.906 220.313 303.906 238.477 M130.859 276.367 L 130.859 294.531 113.867 294.531 L 96.875 294.531 96.875 276.367 L 96.875 258.203 113.867 258.203 L 130.859 258.203 130.859 276.367 M166.504 271.191 C 166.685 283.661,166.733 284.335,167.721 288.077 C 168.287 290.220,168.750 292.550,168.750 293.253 L 168.750 294.531 150.586 294.531 L 132.422 294.531 132.422 276.367 L 132.422 258.203 149.369 258.203 L 166.315 258.203 166.504 271.191 M244.531 276.367 L 244.531 294.531 237.305 294.531 C 233.330 294.531,230.078 294.458,230.078 294.368 C 230.078 294.279,230.443 293.356,230.888 292.318 C 232.982 287.437,233.277 285.033,233.488 271.191 L 233.685 258.203 239.108 258.203 L 244.531 258.203 244.531 276.367 M282.422 276.367 L 282.422 294.531 264.258 294.531 L 246.094 294.531 246.094 276.367 L 246.094 258.203 264.258 258.203 L 282.422 258.203 282.422 276.367 M303.906 276.367 L 303.906 294.531 293.945 294.531 L 283.984 294.531 283.984 276.367 L 283.984 258.203 293.945 258.203 L 303.906 258.203 303.906 276.367 M130.859 313.281 L 130.859 330.469 113.867 330.469 L 96.875 330.469 96.875 313.281 L 96.875 296.094 113.867 296.094 L 130.859 296.094 130.859 313.281 M168.750 313.281 L 168.750 330.469 150.586 330.469 L 132.422 330.469 132.422 313.281 L 132.422 296.094 150.586 296.094 L 168.750 296.094 168.750 313.281 M172.067 297.945 C 178.654 308.371,192.901 314.763,204.980 312.713 L 206.641 312.431 206.641 321.450 L 206.641 330.469 188.477 330.469 L 170.313 330.469 170.313 313.281 C 170.313 303.828,170.444 296.094,170.605 296.094 C 170.767 296.095,171.425 296.928,172.067 297.945 M244.531 313.281 L 244.531 330.469 226.367 330.469 L 208.203 330.469 208.203 321.277 C 208.203 312.863,208.261 312.067,208.887 311.874 C 216.584 309.496,223.582 304.472,227.539 298.481 L 229.102 296.115 236.816 296.105 L 244.531 296.094 244.531 313.281 M282.422 313.281 L 282.422 330.469 264.258 330.469 L 246.094 330.469 246.094 313.281 L 246.094 296.094 264.258 296.094 L 282.422 296.094 282.422 313.281 M303.906 313.281 L 303.906 330.469 293.945 330.469 L 283.984 330.469 283.984 313.281 L 283.984 296.094 293.945 296.094 L 303.906 296.094 303.906 313.281 " stroke="none" fill="#0904b2" fill-rule="evenodd"></path><path id="path2" d="M166.497 281.641 C 166.497 282.393,166.577 282.700,166.676 282.324 C 166.774 281.948,166.774 281.333,166.676 280.957 C 166.577 280.581,166.497 280.889,166.497 281.641 M233.294 281.641 C 233.294 282.393,233.374 282.700,233.472 282.324 C 233.571 281.948,233.571 281.333,233.472 280.957 C 233.374 280.581,233.294 280.889,233.294 281.641 M176.156 303.223 C 177.774 304.947,178.125 305.257,178.125 304.964 C 178.125 304.901,177.290 304.066,176.270 303.109 L 174.414 301.367 176.156 303.223 M223.438 303.320 C 222.489 304.287,221.800 305.078,221.908 305.078 C 222.015 305.078,222.879 304.287,223.828 303.320 C 224.777 302.354,225.465 301.563,225.358 301.563 C 225.251 301.563,224.386 302.354,223.438 303.320 M197.363 313.160 C 197.739 313.258,198.354 313.258,198.730 313.160 C 199.106 313.062,198.799 312.981,198.047 312.981 C 197.295 312.981,196.987 313.062,197.363 313.160 M201.270 313.160 C 201.646 313.258,202.261 313.258,202.637 313.160 C 203.013 313.062,202.705 312.981,201.953 312.981 C 201.201 312.981,200.894 313.062,201.270 313.160 " stroke="none" fill="#7c7cfc" fill-rule="evenodd"></path><path id="path3" d="" stroke="none" fill="#bcc0100" fill-rule="evenodd"></path><path id="path4" d="" stroke="none" fill="#bcc0100" fill-rule="evenodd"></path></g></svg>