<svg id="svg" version="1.1" xmlns="http://www.w3.org/2000/svg" xmlns:xlink="http://www.w3.org/1999/xlink" width="400" height="400" viewBox="0, 0, 400,400"><g id="svgg"><path id="path0" d="M88.893 73.535 C 88.772 73.945,87.473 100.895,87.402 104.492 C 87.389 105.137,86.969 115.332,86.469 127.148 C 85.970 138.965,85.469 150.830,85.357 153.516 C 85.244 156.201,84.884 164.442,84.555 171.829 C 84.227 179.216,84.031 185.333,84.120 185.422 C 84.261 185.564,85.978 183.583,91.797 176.563 C 92.599 175.596,95.507 172.100,98.260 168.795 L 103.266 162.785 103.977 163.717 C 104.368 164.229,104.831 164.826,105.006 165.043 C 105.594 165.771,120.708 198.621,120.890 199.565 C 120.989 200.078,121.320 200.781,121.626 201.128 C 122.346 201.944,142.932 246.386,143.156 247.607 C 143.249 248.116,143.577 248.819,143.884 249.169 C 144.494 249.861,151.563 265.001,151.563 265.613 C 151.563 266.105,152.851 268.886,153.202 269.151 C 153.638 269.480,165.235 294.632,165.421 295.653 C 165.515 296.163,165.843 296.866,166.152 297.216 C 166.460 297.566,169.385 303.652,172.652 310.742 C 180.112 326.933,180.524 327.703,183.174 330.364 C 200.547 347.814,229.987 332.146,224.957 308.125 C 224.569 306.269,208.454 270.918,203.536 261.133 C 202.456 258.984,201.305 256.314,200.978 255.200 C 200.650 254.085,200.144 252.934,199.851 252.642 C 199.088 251.878,198.047 249.763,198.047 248.976 C 198.047 248.606,197.800 248.026,197.499 247.687 C 196.783 246.882,175.781 201.561,175.781 200.822 C 175.781 200.511,175.536 199.979,175.237 199.640 C 174.518 198.826,153.860 154.339,153.713 153.289 C 153.598 152.466,152.050 149.188,151.608 148.828 C 150.960 148.302,148.745 142.968,148.951 142.431 C 149.162 141.880,150.727 141.837,163.691 142.021 C 171.668 142.134,178.104 142.078,177.992 141.897 C 177.800 141.586,175.217 139.538,165.675 132.127 C 155.820 124.474,153.301 122.455,152.996 121.963 C 152.817 121.676,152.290 121.294,151.824 121.113 C 151.358 120.933,148.779 119.067,146.094 116.967 C 143.408 114.868,140.068 112.265,138.672 111.185 C 131.935 105.972,131.006 105.215,130.343 104.395 C 129.951 103.912,129.444 103.516,129.216 103.516 C 128.813 103.516,126.231 101.594,117.383 94.711 C 115.020 92.872,111.855 90.439,110.352 89.304 C 108.848 88.169,106.750 86.430,105.690 85.441 C 104.631 84.451,103.649 83.675,103.509 83.715 C 103.267 83.785,99.946 81.283,92.695 75.571 C 89.264 72.868,89.115 72.788,88.893 73.535 " stroke="none" fill="#fb0506" fill-rule="evenodd"></path><path id="path1" d="M316.016 97.461 C 311.182 100.771,306.963 103.489,306.641 103.500 C 305.897 103.526,303.831 104.872,304.108 105.150 C 304.337 105.379,298.142 109.548,297.482 109.608 C 296.648 109.685,295.703 110.252,295.688 110.686 C 295.670 111.216,249.944 141.897,248.958 142.042 C 248.585 142.097,248.008 142.485,247.675 142.906 C 247.343 143.326,245.049 145.050,242.578 146.737 L 238.086 149.805 240.039 150.063 C 241.113 150.206,243.267 150.338,244.824 150.356 C 246.641 150.378,247.656 150.548,247.656 150.830 C 247.656 151.118,248.095 151.181,248.926 151.014 C 250.636 150.671,261.511 151.242,259.961 151.594 C 259.166 151.775,259.759 151.876,261.803 151.907 C 266.530 151.979,266.747 151.171,257.486 168.042 C 253.046 176.129,249.341 182.674,249.253 182.586 C 249.007 182.341,247.656 184.702,247.656 185.375 C 247.656 186.218,240.667 198.838,239.585 199.950 C 239.090 200.459,238.776 201.024,238.888 201.206 C 239.162 201.649,214.567 246.490,213.567 247.373 C 213.135 247.754,212.738 248.458,212.685 248.937 C 212.633 249.417,210.988 252.721,209.029 256.279 C 207.071 259.838,205.469 263.017,205.469 263.345 C 205.469 263.673,209.785 273.241,215.060 284.607 C 220.820 297.020,224.892 306.287,225.254 307.813 C 226.156 311.602,225.805 318.148,224.523 321.484 C 222.910 325.681,222.905 325.705,223.865 324.535 C 224.339 323.957,227.908 317.709,231.797 310.649 C 235.686 303.589,239.257 297.399,239.733 296.894 C 240.209 296.389,240.510 295.833,240.402 295.659 C 240.185 295.307,247.354 281.989,247.618 282.253 C 247.867 282.502,249.219 280.149,249.219 279.467 C 249.219 278.610,265.281 249.508,266.078 248.921 C 266.446 248.650,266.730 248.122,266.709 247.749 C 266.659 246.872,291.315 202.041,292.495 200.863 C 292.986 200.373,293.290 199.812,293.169 199.618 C 293.049 199.424,293.568 198.156,294.323 196.800 C 295.077 195.445,295.697 194.512,295.700 194.727 C 295.703 194.941,296.057 194.542,296.486 193.838 C 296.915 193.135,297.266 192.294,297.266 191.970 C 297.266 190.974,306.285 175.000,306.847 175.000 C 307.231 175.000,319.665 191.632,322.733 196.248 C 323.290 197.087,323.355 195.819,323.837 174.805 C 324.107 162.988,324.480 153.262,324.664 153.190 C 325.076 153.030,325.115 151.562,324.707 151.563 C 324.295 151.563,325.416 105.302,325.832 105.143 C 326.257 104.980,326.284 103.516,325.861 103.516 C 325.691 103.516,325.624 100.791,325.714 97.461 C 325.847 92.506,325.779 91.410,325.340 91.424 C 325.046 91.434,320.850 94.151,316.016 97.461 " stroke="none" fill="#0606fb" fill-rule="evenodd"></path><path id="path2" d="M95.703 19.020 C 57.445 23.238,27.249 51.557,19.818 90.189 L 18.945 94.727 18.945 200.000 L 18.945 305.273 19.818 309.811 C 26.895 346.601,53.399 373.105,90.189 380.182 L 94.727 381.055 200.000 381.055 L 305.273 381.055 309.811 380.182 C 346.601 373.105,373.105 346.601,380.182 309.811 L 381.055 305.273 381.055 200.000 L 381.055 94.727 380.182 90.189 C 373.118 53.465,346.977 27.248,310.019 19.824 L 305.664 18.949 201.367 18.909 C 144.004 18.887,96.455 18.937,95.703 19.020 M344.922 200.195 L 344.922 344.922 200.195 344.922 L 55.469 344.922 55.469 200.195 L 55.469 55.469 200.195 55.469 L 344.922 55.469 344.922 200.195 M57.031 80.273 L 57.031 103.516 72.207 103.516 L 87.383 103.516 87.652 96.191 C 87.800 92.163,88.000 87.549,88.097 85.938 C 88.194 84.326,88.380 80.767,88.512 78.027 C 88.795 72.111,88.750 72.141,92.632 75.239 C 94.143 76.444,96.790 78.509,98.514 79.828 C 100.238 81.147,102.069 82.549,102.582 82.943 L 103.516 83.659 103.516 70.345 L 103.516 57.031 80.273 57.031 L 57.031 57.031 57.031 80.273 M105.078 70.953 C 105.078 82.356,105.176 84.953,105.620 85.308 C 105.918 85.547,107.808 87.010,109.819 88.561 C 111.831 90.111,115.410 92.881,117.773 94.716 C 120.137 96.552,123.673 99.283,125.631 100.785 L 129.192 103.516 140.377 103.516 L 151.563 103.516 151.563 80.273 L 151.563 57.031 128.320 57.031 L 105.078 57.031 105.078 70.953 M153.125 80.273 L 153.125 103.516 176.367 103.516 L 199.609 103.516 199.609 80.273 L 199.609 57.031 176.367 57.031 L 153.125 57.031 153.125 80.273 M201.172 80.273 L 201.172 103.516 224.414 103.516 L 247.656 103.516 247.656 80.273 L 247.656 57.031 224.414 57.031 L 201.172 57.031 201.172 80.273 M249.219 80.273 L 249.219 103.516 272.461 103.516 L 295.703 103.516 295.703 80.273 L 295.703 57.031 272.461 57.031 L 249.219 57.031 249.219 80.273 M297.266 80.273 L 297.266 103.516 301.457 103.516 L 305.649 103.516 315.686 96.834 C 321.901 92.697,325.906 90.265,326.202 90.448 C 326.564 90.672,326.622 92.297,326.440 97.130 L 326.200 103.516 334.975 103.516 L 343.750 103.516 343.750 80.273 L 343.750 57.031 320.508 57.031 L 297.266 57.031 297.266 80.273 M57.031 128.320 L 57.031 151.563 71.094 151.563 C 82.081 151.563,85.157 151.456,85.161 151.074 C 85.164 150.806,85.602 141.182,86.135 129.688 C 86.667 118.193,87.104 107.954,87.106 106.934 L 87.109 105.078 72.070 105.078 L 57.031 105.078 57.031 128.320 M133.457 106.829 C 134.714 107.792,137.324 109.815,139.258 111.325 C 145.600 116.278,150.047 119.717,150.811 120.262 C 151.545 120.786,151.563 120.620,151.563 112.938 L 151.563 105.078 141.368 105.078 L 131.173 105.078 133.457 106.829 M153.131 113.574 L 153.138 122.070 157.660 125.586 C 176.344 140.112,178.563 141.880,178.363 142.079 C 178.259 142.184,172.538 142.242,165.649 142.209 L 153.125 142.149 153.125 146.856 L 153.125 151.563 176.367 151.563 L 199.609 151.563 199.609 128.320 L 199.609 105.078 176.367 105.078 L 153.125 105.078 153.131 113.574 M201.172 128.320 L 201.172 151.563 224.512 151.504 C 244.834 151.453,247.149 151.390,242.413 151.016 C 239.400 150.778,236.916 150.406,236.843 150.182 C 236.769 149.960,239.173 148.128,242.183 146.111 L 247.656 142.444 247.656 123.761 L 247.656 105.078 224.414 105.078 L 201.172 105.078 201.172 128.320 M249.219 123.218 L 249.219 141.358 268.848 128.234 C 279.644 121.017,290.103 113.988,292.090 112.615 L 295.703 110.118 295.703 107.598 L 295.703 105.078 272.461 105.078 L 249.219 105.078 249.219 123.218 M297.266 107.076 L 297.266 109.074 298.340 108.379 C 298.931 107.997,300.291 107.098,301.362 106.381 L 303.310 105.078 300.288 105.078 L 297.266 105.078 297.266 107.076 M326.173 106.934 C 326.174 110.022,325.418 142.460,325.235 147.168 L 325.064 151.563 334.407 151.563 L 343.750 151.563 343.750 128.320 L 343.750 105.078 334.961 105.078 L 326.172 105.078 326.173 106.934 M149.082 142.484 C 148.981 142.647,149.483 144.009,150.197 145.511 L 151.495 148.242 151.529 145.215 L 151.563 142.188 150.414 142.188 C 149.782 142.188,149.182 142.321,149.082 142.484 M57.031 176.367 L 57.031 199.609 80.273 199.609 L 103.516 199.609 103.516 181.445 C 103.516 171.455,103.437 163.281,103.340 163.281 C 103.244 163.281,98.893 168.408,93.672 174.675 L 84.180 186.069 84.043 184.148 C 83.890 181.988,84.661 159.338,85.017 155.566 L 85.247 153.125 71.139 153.125 L 57.031 153.125 57.031 176.367 M154.081 153.809 C 154.223 154.185,159.031 164.642,164.767 177.048 L 175.195 199.604 187.402 199.607 L 199.609 199.609 199.609 176.367 L 199.609 153.125 176.716 153.125 C 155.075 153.125,153.837 153.162,154.081 153.809 M201.172 176.367 L 201.172 199.609 220.266 199.609 L 239.360 199.609 243.508 192.032 L 247.656 184.454 247.656 168.789 L 247.656 153.125 224.414 153.125 L 201.172 153.125 201.172 176.367 M249.219 167.253 C 249.219 175.023,249.288 181.307,249.372 181.217 C 249.457 181.128,252.906 174.902,257.038 167.383 C 261.170 159.863,264.627 153.579,264.720 153.418 C 264.813 153.257,261.364 153.125,257.054 153.125 L 249.219 153.125 249.219 167.253 M325.004 155.176 C 325.030 170.009,323.951 198.153,323.363 197.957 C 323.147 197.885,319.428 192.920,315.099 186.924 C 310.769 180.928,307.062 176.038,306.862 176.057 C 306.661 176.077,304.426 179.846,301.895 184.433 L 297.292 192.773 297.279 196.191 L 297.266 199.609 320.508 199.609 L 343.750 199.609 343.750 176.367 L 343.750 153.125 334.375 153.125 L 325.000 153.125 325.004 155.176 M105.094 182.715 L 105.078 199.609 112.891 199.609 C 117.188 199.609,120.703 199.506,120.703 199.380 C 120.703 199.119,106.453 168.295,105.639 166.797 C 105.186 165.962,105.107 168.263,105.094 182.715 M294.629 197.639 C 293.533 199.559,293.535 199.609,294.727 199.609 C 295.624 199.609,295.703 199.466,295.703 197.852 C 295.703 195.724,295.721 195.727,294.629 197.639 M57.031 224.414 L 57.031 247.656 80.273 247.656 L 103.516 247.656 103.516 224.414 L 103.516 201.172 80.273 201.172 L 57.031 201.172 57.031 224.414 M105.078 224.414 L 105.078 247.656 124.065 247.656 C 141.938 247.656,143.037 247.616,142.792 246.977 C 142.648 246.604,137.840 236.148,132.105 223.741 L 121.680 201.184 113.379 201.178 L 105.078 201.172 105.078 224.414 M176.343 201.855 C 179.406 210.079,197.612 247.651,198.535 247.653 L 199.609 247.656 199.609 224.414 L 199.609 201.172 187.849 201.172 C 176.812 201.172,176.104 201.214,176.343 201.855 M201.172 224.424 L 201.172 247.677 207.116 247.569 L 213.060 247.461 225.647 224.609 C 232.570 212.041,238.245 201.626,238.258 201.465 C 238.271 201.304,229.932 201.172,219.727 201.172 L 201.172 201.172 201.172 224.424 M288.584 208.691 C 286.312 212.827,281.078 222.363,276.952 229.883 C 272.826 237.402,268.928 244.478,268.290 245.605 L 267.130 247.656 281.417 247.656 L 295.703 247.656 295.703 224.414 L 295.703 201.172 294.209 201.172 L 292.715 201.172 288.584 208.691 M297.266 224.414 L 297.266 247.656 320.508 247.656 L 343.750 247.656 343.750 224.414 L 343.750 201.172 320.508 201.172 L 297.266 201.172 297.266 224.414 M57.031 272.461 L 57.031 295.703 80.273 295.703 L 103.516 295.703 103.516 272.461 L 103.516 249.219 80.273 249.219 L 57.031 249.219 57.031 272.461 M105.078 272.461 L 105.078 295.703 128.320 295.703 L 151.563 295.703 151.564 280.762 L 151.566 265.820 147.756 257.526 L 143.945 249.231 124.512 249.225 L 105.078 249.219 105.078 272.461 M198.654 250.098 C 199.223 251.957,199.585 252.182,199.597 250.684 C 199.606 249.609,199.446 249.219,198.997 249.219 C 198.543 249.219,198.454 249.446,198.654 250.098 M201.176 252.441 C 201.180 255.537,203.398 262.024,204.579 262.392 C 204.746 262.444,205.801 260.776,206.923 258.685 C 208.044 256.594,209.676 253.608,210.549 252.051 L 212.136 249.219 206.654 249.219 L 201.172 249.219 201.176 252.441 M257.715 264.821 L 249.219 280.392 249.219 288.048 L 249.219 295.703 272.461 295.703 L 295.703 295.703 295.703 272.461 L 295.703 249.219 280.957 249.234 L 266.211 249.250 257.715 264.821 M297.266 272.461 L 297.266 295.703 320.508 295.703 L 343.750 295.703 343.750 272.461 L 343.750 249.219 320.508 249.219 L 297.266 249.219 297.266 272.461 M153.125 282.552 L 153.125 295.703 159.180 295.703 C 162.510 295.703,165.234 295.617,165.234 295.511 C 165.234 295.286,153.485 269.806,153.270 269.564 C 153.190 269.474,153.125 275.319,153.125 282.552 M244.232 289.428 C 242.463 292.637,241.016 295.362,241.016 295.483 C 241.016 295.604,242.510 295.703,244.336 295.703 L 247.656 295.703 247.656 289.648 C 247.656 286.318,247.609 283.594,247.552 283.594 C 247.495 283.594,246.000 286.219,244.232 289.428 M57.031 320.508 L 57.031 343.750 80.273 343.750 L 103.516 343.750 103.516 320.508 L 103.516 297.266 80.273 297.266 L 57.031 297.266 57.031 320.508 M105.078 320.508 L 105.078 343.750 128.320 343.750 L 151.563 343.750 151.563 320.508 L 151.563 297.266 128.320 297.266 L 105.078 297.266 105.078 320.508 M153.125 320.508 L 153.125 343.750 176.367 343.750 L 199.609 343.750 199.609 340.877 L 199.609 338.004 197.168 337.775 C 192.119 337.303,186.612 334.328,182.508 329.856 C 179.963 327.083,179.674 326.541,173.047 312.137 L 166.211 297.278 159.668 297.272 L 153.125 297.266 153.125 320.508 M232.213 311.323 C 223.756 326.733,222.527 328.453,217.511 331.912 C 212.228 335.554,208.015 337.340,203.516 337.845 L 201.367 338.086 201.252 340.918 L 201.138 343.750 224.397 343.750 L 247.656 343.750 247.656 320.508 L 247.656 297.266 243.792 297.266 L 239.928 297.266 232.213 311.323 M249.219 320.508 L 249.219 343.750 272.461 343.750 L 295.703 343.750 295.703 320.508 L 295.703 297.266 272.461 297.266 L 249.219 297.266 249.219 320.508 M297.266 320.508 L 297.266 343.750 320.508 343.750 L 343.750 343.750 343.750 320.508 L 343.750 297.266 320.508 297.266 L 297.266 297.266 297.266 320.508 " stroke="none" fill="#fbfbfb" fill-rule="evenodd"></path><path id="path3" d="M55.469 200.195 L 55.469 344.922 200.195 344.922 L 344.922 344.922 344.922 200.195 L 344.922 55.469 200.195 55.469 L 55.469 55.469 55.469 200.195 M103.516 70.360 C 103.516 82.999,103.480 83.662,102.832 83.153 C 102.213 82.668,102.199 82.682,102.681 83.296 C 102.974 83.670,103.357 83.887,103.533 83.778 C 103.709 83.670,103.963 83.760,104.098 83.978 C 104.931 85.327,105.078 83.342,105.078 70.703 L 105.078 57.031 128.320 57.031 L 151.563 57.031 151.563 80.273 L 151.563 103.516 140.607 103.516 L 129.651 103.516 130.314 104.395 C 130.975 105.272,130.991 105.273,141.269 105.163 L 151.563 105.053 151.563 112.901 C 151.563 118.034,151.427 120.666,151.172 120.508 C 150.957 120.375,150.781 120.352,150.781 120.456 C 150.781 120.561,151.309 120.909,151.953 121.231 L 153.125 121.815 153.125 113.447 L 153.125 105.078 176.367 105.078 L 199.609 105.078 199.609 128.320 L 199.609 151.563 176.353 151.563 C 153.764 151.563,153.109 151.583,153.488 152.292 C 153.703 152.694,153.783 153.118,153.667 153.234 C 153.550 153.351,153.743 153.945,154.096 154.555 C 154.658 155.528,154.624 155.084,154.022 153.613 C 153.864 153.226,158.555 153.125,176.716 153.125 L 199.609 153.125 199.609 176.367 L 199.609 199.609 187.541 199.609 L 175.473 199.609 175.767 200.912 C 175.928 201.628,176.274 202.551,176.536 202.962 C 177.030 203.740,176.936 203.246,176.288 201.660 C 176.131 201.276,178.594 201.172,187.849 201.172 L 199.609 201.172 199.609 224.414 L 199.609 247.656 198.674 247.656 C 197.749 247.656,197.730 249.850,198.647 250.715 C 198.800 250.859,198.804 250.581,198.655 250.098 C 198.449 249.429,198.541 249.219,199.038 249.219 C 199.565 249.219,199.663 249.522,199.542 250.781 C 199.460 251.641,199.511 252.344,199.655 252.344 C 199.799 252.344,200.190 253.003,200.524 253.809 L 201.132 255.273 201.152 252.246 L 201.172 249.219 206.836 249.219 C 209.951 249.219,212.500 249.145,212.500 249.055 C 212.500 248.966,212.607 248.614,212.737 248.274 C 212.947 247.728,212.294 247.656,207.073 247.656 L 201.172 247.656 201.172 224.414 L 201.172 201.172 219.844 201.172 C 238.359 201.172,239.453 201.102,239.453 199.922 C 239.453 199.750,230.840 199.609,220.313 199.609 L 201.172 199.609 201.172 176.367 L 201.172 153.125 224.410 153.125 L 247.647 153.125 247.749 168.848 C 247.848 184.067,247.873 184.530,248.535 183.320 C 249.151 182.193,249.219 180.644,249.219 167.598 L 249.219 153.125 257.259 153.125 C 263.517 153.125,265.264 153.017,265.138 152.637 C 264.861 151.795,259.105 151.627,229.590 151.600 L 201.172 151.575 201.172 128.326 L 201.172 105.078 224.414 105.078 L 247.656 105.078 247.656 123.842 C 247.656 142.485,247.661 142.603,248.438 142.188 C 249.202 141.778,249.219 141.370,249.219 123.424 L 249.219 105.078 272.461 105.078 L 295.703 105.078 295.703 107.617 C 295.703 109.014,295.844 110.156,296.016 110.156 C 296.805 110.156,297.266 109.048,297.266 107.148 L 297.266 105.078 300.488 105.076 C 303.047 105.074,303.952 104.913,304.883 104.297 L 306.055 103.521 301.660 103.518 L 297.266 103.516 297.266 80.273 L 297.266 57.031 320.508 57.031 L 343.750 57.031 343.750 80.273 L 343.750 103.516 334.961 103.516 C 326.432 103.516,326.172 103.539,326.172 104.297 C 326.172 105.055,326.432 105.078,334.961 105.078 L 343.750 105.078 343.750 128.320 L 343.750 151.563 334.375 151.563 C 325.260 151.563,325.000 151.584,325.000 152.344 C 325.000 153.103,325.260 153.125,334.375 153.125 L 343.750 153.125 343.750 176.367 L 343.750 199.609 320.523 199.609 L 297.296 199.609 297.183 196.191 L 297.070 192.773 296.387 194.024 C 295.968 194.789,295.703 196.114,295.703 197.442 C 295.703 199.584,295.690 199.609,294.545 199.609 C 293.787 199.609,293.243 199.879,292.969 200.391 C 292.583 201.112,292.672 201.172,294.127 201.172 L 295.703 201.172 295.703 224.414 L 295.703 247.656 281.344 247.656 C 267.408 247.656,266.970 247.679,266.497 248.438 C 266.012 249.214,266.107 249.219,280.856 249.219 L 295.703 249.219 295.703 272.461 L 295.703 295.703 272.469 295.703 L 249.235 295.703 249.129 287.988 C 249.025 280.398,249.012 280.294,248.340 281.524 C 247.767 282.572,247.656 283.818,247.656 289.238 L 247.656 295.703 244.219 295.703 C 241.004 295.703,239.844 296.034,239.844 296.953 C 239.844 297.125,241.602 297.266,243.750 297.266 L 247.656 297.266 247.656 320.508 L 247.656 343.750 224.383 343.750 L 201.110 343.750 201.239 340.892 C 201.364 338.110,201.344 338.039,200.488 338.203 C 199.678 338.359,199.609 338.583,199.609 341.061 L 199.609 343.750 176.367 343.750 L 153.125 343.750 153.125 320.508 L 153.125 297.266 159.584 297.266 C 165.771 297.266,166.027 297.235,165.652 296.536 C 165.438 296.134,165.329 295.739,165.412 295.657 C 165.495 295.575,162.759 295.560,159.333 295.624 L 153.105 295.741 153.213 282.440 C 153.272 275.125,153.232 269.096,153.125 269.043 C 153.018 268.989,152.633 268.330,152.271 267.578 C 151.640 266.269,151.611 266.836,151.587 280.957 L 151.563 295.703 128.320 295.703 L 105.078 295.703 105.078 272.461 L 105.078 249.219 124.428 249.219 C 143.203 249.219,143.766 249.197,143.387 248.489 C 143.172 248.087,143.063 247.692,143.145 247.610 C 143.228 247.528,134.696 247.508,124.186 247.566 L 105.078 247.671 105.078 224.421 L 105.078 201.172 113.295 201.172 C 121.198 201.172,121.497 201.144,121.121 200.442 C 120.906 200.041,120.798 199.645,120.880 199.563 C 120.963 199.481,117.441 199.465,113.054 199.527 L 105.078 199.640 105.084 182.730 C 105.088 171.668,105.221 166.023,105.469 166.406 C 105.677 166.729,105.850 166.808,105.853 166.583 C 105.857 166.358,105.598 165.831,105.279 165.411 C 104.960 164.992,104.386 164.241,104.004 163.744 L 103.310 162.839 102.339 163.939 L 101.367 165.039 102.441 164.092 L 103.516 163.145 103.516 181.377 L 103.516 199.609 80.273 199.609 L 57.031 199.609 57.031 176.367 L 57.031 153.125 71.065 153.125 C 83.884 153.125,85.110 153.182,85.225 153.780 C 85.295 154.140,85.362 152.865,85.375 150.948 C 85.388 149.030,85.335 148.384,85.258 149.512 L 85.117 151.563 71.074 151.563 L 57.031 151.563 57.031 128.320 L 57.031 105.078 72.070 105.078 L 87.109 105.078 87.172 107.324 C 87.215 108.879,87.285 109.153,87.398 108.213 C 87.489 107.467,87.450 106.105,87.312 105.186 L 87.062 103.516 72.046 103.516 L 57.031 103.516 57.031 80.273 L 57.031 57.031 80.273 57.031 L 103.516 57.031 103.516 70.360 M199.609 80.273 L 199.609 103.516 176.367 103.516 L 153.125 103.516 153.125 80.273 L 153.125 57.031 176.367 57.031 L 199.609 57.031 199.609 80.273 M247.656 80.273 L 247.656 103.516 224.414 103.516 L 201.172 103.516 201.172 80.273 L 201.172 57.031 224.414 57.031 L 247.656 57.031 247.656 80.273 M295.703 80.273 L 295.703 103.516 272.461 103.516 L 249.219 103.516 249.219 80.273 L 249.219 57.031 272.461 57.031 L 295.703 57.031 295.703 80.273 M88.406 80.078 C 88.406 81.475,88.477 82.046,88.564 81.348 C 88.650 80.649,88.650 79.507,88.564 78.809 C 88.477 78.110,88.406 78.682,88.406 80.078 M88.012 89.258 C 88.014 90.547,88.087 91.027,88.174 90.325 C 88.261 89.623,88.259 88.568,88.170 87.981 C 88.081 87.394,88.009 87.969,88.012 89.258 M87.631 97.656 C 87.631 99.268,87.700 99.927,87.785 99.121 C 87.869 98.315,87.869 96.997,87.785 96.191 C 87.700 95.386,87.631 96.045,87.631 97.656 M131.641 105.591 C 131.641 105.688,132.286 106.259,133.075 106.860 C 133.863 107.462,134.385 107.755,134.235 107.511 C 133.926 107.011,131.641 105.320,131.641 105.591 M86.850 115.234 C 86.850 116.846,86.919 117.505,87.003 116.699 C 87.088 115.894,87.088 114.575,87.003 113.770 C 86.919 112.964,86.850 113.623,86.850 115.234 M145.703 116.529 C 145.703 116.625,146.348 117.196,147.137 117.798 C 147.926 118.400,148.448 118.692,148.297 118.448 C 147.988 117.948,145.703 116.257,145.703 116.529 M86.462 124.023 C 86.463 125.742,86.532 126.397,86.615 125.478 C 86.697 124.559,86.696 123.153,86.612 122.353 C 86.528 121.553,86.461 122.305,86.462 124.023 M86.074 132.813 C 86.074 134.639,86.141 135.386,86.224 134.473 C 86.306 133.560,86.306 132.065,86.224 131.152 C 86.141 130.239,86.074 130.986,86.074 132.813 M85.688 141.797 C 85.688 143.838,85.754 144.673,85.834 143.652 C 85.914 142.632,85.914 140.962,85.834 139.941 C 85.754 138.921,85.688 139.756,85.688 141.797 M177.471 141.274 C 178.161 142.092,178.161 142.125,177.471 142.303 C 176.860 142.461,176.853 142.494,177.418 142.533 C 178.472 142.605,178.570 141.963,177.628 141.165 L 176.758 140.430 177.471 141.274 M149.032 142.174 C 148.950 142.306,149.505 142.342,150.265 142.254 L 151.647 142.092 151.507 145.460 C 151.430 147.313,151.467 148.828,151.589 148.828 C 151.711 148.828,152.096 149.399,152.443 150.098 C 153.063 151.342,153.076 151.277,153.100 146.794 L 153.125 142.222 155.957 142.088 C 157.515 142.014,156.627 141.949,153.985 141.943 C 151.342 141.938,149.114 142.042,149.032 142.174 M160.650 142.077 C 161.244 142.167,162.123 142.165,162.603 142.072 C 163.083 141.979,162.598 141.906,161.523 141.909 C 160.449 141.912,160.056 141.987,160.650 142.077 M84.908 159.570 C 84.909 161.719,84.975 162.548,85.054 161.413 C 85.133 160.278,85.132 158.520,85.052 157.506 C 84.972 156.493,84.907 157.422,84.908 159.570 M158.621 164.258 C 158.621 164.473,158.873 165.088,159.180 165.625 C 159.487 166.162,159.738 166.426,159.738 166.211 C 159.738 165.996,159.487 165.381,159.180 164.844 C 158.873 164.307,158.621 164.043,158.621 164.258 M84.518 168.555 C 84.519 170.703,84.584 171.532,84.663 170.397 C 84.743 169.262,84.742 167.504,84.662 166.491 C 84.581 165.478,84.517 166.406,84.518 168.555 M100.171 166.504 L 99.023 167.773 100.293 166.626 C 101.476 165.557,101.742 165.234,101.440 165.234 C 101.373 165.234,100.802 165.806,100.171 166.504 M160.965 169.336 C 160.965 169.551,161.216 170.166,161.523 170.703 C 161.830 171.240,162.082 171.504,162.082 171.289 C 162.082 171.074,161.830 170.459,161.523 169.922 C 161.216 169.385,160.965 169.121,160.965 169.336 M96.264 171.191 L 95.117 172.461 96.387 171.314 C 97.570 170.244,97.836 169.922,97.534 169.922 C 97.467 169.922,96.896 170.493,96.264 171.191 M107.450 170.508 C 107.450 170.723,107.701 171.338,108.008 171.875 C 108.315 172.412,108.566 172.676,108.566 172.461 C 108.566 172.246,108.315 171.631,108.008 171.094 C 107.701 170.557,107.450 170.293,107.450 170.508 M84.121 177.734 C 84.121 179.561,84.188 180.308,84.270 179.395 C 84.353 178.481,84.353 176.987,84.270 176.074 C 84.188 175.161,84.121 175.908,84.121 177.734 M103.516 224.414 L 103.516 247.656 80.273 247.656 L 57.031 247.656 57.031 224.414 L 57.031 201.172 80.273 201.172 L 103.516 201.172 103.516 224.414 M343.750 224.414 L 343.750 247.656 320.508 247.656 L 297.266 247.656 297.266 224.414 L 297.266 201.172 320.508 201.172 L 343.750 201.172 343.750 224.414 M122.293 202.539 C 122.293 202.754,122.545 203.369,122.852 203.906 C 123.159 204.443,123.410 204.707,123.410 204.492 C 123.410 204.277,123.159 203.662,122.852 203.125 C 122.545 202.588,122.293 202.324,122.293 202.539 M178.153 206.445 C 178.153 206.660,178.404 207.275,178.711 207.813 C 179.018 208.350,179.269 208.613,179.269 208.398 C 179.269 208.184,179.018 207.568,178.711 207.031 C 178.404 206.494,178.153 206.230,178.153 206.445 M124.637 207.617 C 124.637 207.832,124.888 208.447,125.195 208.984 C 125.502 209.521,125.754 209.785,125.754 209.570 C 125.754 209.355,125.502 208.740,125.195 208.203 C 124.888 207.666,124.637 207.402,124.637 207.617 M129.715 218.555 C 129.715 218.770,129.966 219.385,130.273 219.922 C 130.580 220.459,130.832 220.723,130.832 220.508 C 130.832 220.293,130.580 219.678,130.273 219.141 C 129.966 218.604,129.715 218.340,129.715 218.555 M185.575 222.461 C 185.575 222.676,185.826 223.291,186.133 223.828 C 186.440 224.365,186.691 224.629,186.691 224.414 C 186.691 224.199,186.440 223.584,186.133 223.047 C 185.826 222.510,185.575 222.246,185.575 222.461 M132.059 223.633 C 132.059 223.848,132.310 224.463,132.617 225.000 C 132.924 225.537,133.175 225.801,133.175 225.586 C 133.175 225.371,132.924 224.756,132.617 224.219 C 132.310 223.682,132.059 223.418,132.059 223.633 M190.653 233.398 C 190.653 233.613,190.904 234.229,191.211 234.766 C 191.518 235.303,191.769 235.566,191.769 235.352 C 191.769 235.137,191.518 234.521,191.211 233.984 C 190.904 233.447,190.653 233.184,190.653 233.398 M137.137 234.570 C 137.137 234.785,137.388 235.400,137.695 235.938 C 138.002 236.475,138.254 236.738,138.254 236.523 C 138.254 236.309,138.002 235.693,137.695 235.156 C 137.388 234.619,137.137 234.355,137.137 234.570 M192.996 238.477 C 192.996 238.691,193.248 239.307,193.555 239.844 C 193.862 240.381,194.113 240.645,194.113 240.430 C 194.113 240.215,193.862 239.600,193.555 239.063 C 193.248 238.525,192.996 238.262,192.996 238.477 M139.481 239.648 C 139.481 239.863,139.732 240.479,140.039 241.016 C 140.346 241.553,140.597 241.816,140.597 241.602 C 140.597 241.387,140.346 240.771,140.039 240.234 C 139.732 239.697,139.481 239.434,139.481 239.648 M141.825 244.727 C 141.825 244.941,142.076 245.557,142.383 246.094 C 142.690 246.631,142.941 246.895,142.941 246.680 C 142.941 246.465,142.690 245.850,142.383 245.313 C 142.076 244.775,141.825 244.512,141.825 244.727 M103.516 272.461 L 103.516 295.703 80.273 295.703 L 57.031 295.703 57.031 272.461 L 57.031 249.219 80.273 249.219 L 103.516 249.219 103.516 272.461 M343.750 272.461 L 343.750 295.703 320.508 295.703 L 297.266 295.703 297.266 272.461 L 297.266 249.219 320.508 249.219 L 343.750 249.219 343.750 272.461 M146.903 255.664 C 146.903 255.879,147.154 256.494,147.461 257.031 C 147.768 257.568,148.019 257.832,148.019 257.617 C 148.019 257.402,147.768 256.787,147.461 256.250 C 147.154 255.713,146.903 255.449,146.903 255.664 M202.762 259.570 C 202.762 259.785,203.013 260.400,203.320 260.938 C 203.627 261.475,203.879 261.738,203.879 261.523 C 203.879 261.309,203.627 260.693,203.320 260.156 C 203.013 259.619,202.762 259.355,202.762 259.570 M149.246 260.742 C 149.246 260.957,149.498 261.572,149.805 262.109 C 150.112 262.646,150.363 262.910,150.363 262.695 C 150.363 262.480,150.112 261.865,149.805 261.328 C 149.498 260.791,149.246 260.527,149.246 260.742 M205.167 264.322 C 205.870 265.647,206.502 266.674,206.570 266.606 C 206.742 266.435,205.278 263.650,204.514 262.695 C 204.170 262.266,204.464 262.998,205.167 264.322 M206.677 267.383 C 206.677 267.598,207.188 268.740,207.813 269.922 C 208.437 271.104,208.948 271.895,208.948 271.680 C 208.948 271.465,208.437 270.322,207.813 269.141 C 207.188 267.959,206.677 267.168,206.677 267.383 M154.325 271.680 C 154.325 271.895,154.576 272.510,154.883 273.047 C 155.190 273.584,155.441 273.848,155.441 273.633 C 155.441 273.418,155.190 272.803,154.883 272.266 C 154.576 271.729,154.325 271.465,154.325 271.680 M209.135 272.656 C 209.429 273.719,213.794 282.821,213.939 282.676 C 214.017 282.598,212.931 280.179,211.526 277.302 C 210.121 274.425,209.045 272.334,209.135 272.656 M156.668 276.758 C 156.668 276.973,156.920 277.588,157.227 278.125 C 157.534 278.662,157.785 278.926,157.785 278.711 C 157.785 278.496,157.534 277.881,157.227 277.344 C 156.920 276.807,156.668 276.543,156.668 276.758 M159.012 281.836 C 159.012 282.051,159.263 282.666,159.570 283.203 C 159.877 283.740,160.129 284.004,160.129 283.789 C 160.129 283.574,159.877 282.959,159.570 282.422 C 159.263 281.885,159.012 281.621,159.012 281.836 M214.099 283.398 C 214.099 283.613,214.610 284.756,215.234 285.938 C 215.859 287.119,216.369 287.910,216.369 287.695 C 216.369 287.480,215.859 286.338,215.234 285.156 C 214.610 283.975,214.099 283.184,214.099 283.398 M161.746 287.695 C 161.746 287.910,161.998 288.525,162.305 289.063 C 162.612 289.600,162.863 289.863,162.863 289.648 C 162.863 289.434,162.612 288.818,162.305 288.281 C 161.998 287.744,161.746 287.480,161.746 287.695 M216.556 288.672 C 216.851 289.734,221.216 298.836,221.361 298.691 C 221.439 298.613,220.353 296.195,218.948 293.318 C 217.543 290.440,216.467 288.350,216.556 288.672 M164.090 292.773 C 164.090 292.988,164.341 293.604,164.648 294.141 C 164.955 294.678,165.207 294.941,165.207 294.727 C 165.207 294.512,164.955 293.896,164.648 293.359 C 164.341 292.822,164.090 292.559,164.090 292.773 M103.516 320.508 L 103.516 343.750 80.273 343.750 L 57.031 343.750 57.031 320.508 L 57.031 297.266 80.273 297.266 L 103.516 297.266 103.516 320.508 M151.563 320.508 L 151.563 343.750 128.320 343.750 L 105.078 343.750 105.078 320.508 L 105.078 297.266 128.320 297.266 L 151.563 297.266 151.563 320.508 M295.703 320.508 L 295.703 343.750 272.461 343.750 L 249.219 343.750 249.219 320.508 L 249.219 297.266 272.461 297.266 L 295.703 297.266 295.703 320.508 M343.750 320.508 L 343.750 343.750 320.508 343.750 L 297.266 343.750 297.266 320.508 L 297.266 297.266 320.508 297.266 L 343.750 297.266 343.750 320.508 M221.517 299.328 C 221.499 299.495,221.991 300.637,222.610 301.867 C 224.567 305.753,225.090 307.797,225.380 312.695 L 225.657 317.383 225.719 313.835 C 225.801 309.148,225.255 306.658,223.230 302.485 C 222.306 300.581,221.535 299.160,221.517 299.328 M169.168 303.711 C 169.168 303.926,169.420 304.541,169.727 305.078 C 170.034 305.615,170.285 305.879,170.285 305.664 C 170.285 305.449,170.034 304.834,169.727 304.297 C 169.420 303.760,169.168 303.496,169.168 303.711 M171.512 308.789 C 171.512 309.004,171.763 309.619,172.070 310.156 C 172.377 310.693,172.629 310.957,172.629 310.742 C 172.629 310.527,172.377 309.912,172.070 309.375 C 171.763 308.838,171.512 308.574,171.512 308.789 M224.297 320.977 C 224.053 321.771,223.918 322.486,223.997 322.565 C 224.076 322.644,224.352 322.070,224.609 321.289 C 224.867 320.508,225.002 319.794,224.909 319.701 C 224.816 319.608,224.541 320.182,224.297 320.977 M222.928 324.419 C 222.571 325.168,222.359 325.781,222.457 325.781 C 222.725 325.781,223.910 323.389,223.732 323.211 C 223.647 323.126,223.285 323.670,222.928 324.419 M178.908 324.837 C 178.909 325.276,180.384 327.734,180.645 327.734 C 180.748 327.734,180.456 327.075,179.994 326.270 C 178.961 324.465,178.906 324.392,178.908 324.837 M220.924 327.637 C 220.080 328.716,220.012 328.897,220.667 328.325 C 221.451 327.641,222.484 326.172,222.182 326.172 C 222.120 326.172,221.555 326.831,220.924 327.637 M218.530 330.566 L 217.383 331.836 218.652 330.689 C 219.351 330.058,219.922 329.486,219.922 329.419 C 219.922 329.117,219.600 329.383,218.530 330.566 M183.594 330.982 C 183.594 331.049,184.165 331.620,184.863 332.251 L 186.133 333.398 184.986 332.129 C 183.916 330.946,183.594 330.680,183.594 330.982 " stroke="none" fill="#7c7c7c" fill-rule="evenodd"></path><path id="path4" d="M315.625 96.875 C 310.146 100.527,305.985 103.515,306.377 103.515 C 306.769 103.515,311.107 100.791,316.016 97.461 C 320.925 94.131,325.151 91.406,325.409 91.406 C 325.759 91.406,325.835 92.930,325.714 97.461 C 325.530 104.276,325.958 105.631,326.360 99.512 C 326.680 94.658,326.507 90.538,325.977 90.363 C 325.762 90.293,321.104 93.223,315.625 96.875 M300.293 107.087 C 297.684 108.814,296.684 109.766,297.479 109.766 C 297.710 109.766,303.474 105.968,304.082 105.415 C 305.297 104.311,302.870 105.382,300.293 107.087 M325.354 110.645 C 325.334 113.706,325.114 124.165,324.866 133.887 C 324.617 143.609,324.532 151.563,324.676 151.563 C 325.120 151.562,325.356 147.166,325.576 134.766 C 325.693 128.213,325.901 118.853,326.038 113.965 C 326.224 107.386,326.172 105.078,325.840 105.078 C 325.524 105.078,325.380 106.733,325.354 110.645 M272.489 125.769 C 259.828 134.262,249.390 141.455,249.294 141.754 C 249.197 142.052,259.555 135.302,272.313 126.753 C 299.147 108.770,295.818 111.066,295.646 110.657 C 295.570 110.476,285.149 117.276,272.489 125.769 M242.189 146.107 C 236.125 150.194,236.471 149.913,236.940 150.363 C 237.520 150.921,247.656 151.364,247.656 150.831 C 247.656 150.548,246.646 150.378,244.824 150.356 C 243.267 150.338,241.113 150.206,240.039 150.063 L 238.086 149.805 242.871 146.527 C 246.841 143.809,248.296 142.578,247.541 142.578 C 247.478 142.578,245.070 144.166,242.189 146.107 M249.219 151.139 C 249.219 151.425,251.149 151.563,255.143 151.563 C 258.402 151.563,260.994 151.497,260.905 151.416 C 260.456 151.013,249.219 150.746,249.219 151.139 M264.720 153.418 C 260.868 160.056,249.205 181.841,249.292 182.236 C 249.395 182.705,253.217 175.934,263.786 156.556 C 264.815 154.669,265.484 153.125,265.273 153.125 C 265.062 153.125,264.813 153.257,264.720 153.418 M324.083 164.355 C 323.457 191.445,323.300 196.484,323.083 196.476 C 322.956 196.472,319.369 191.638,315.112 185.734 C 310.856 179.830,307.136 175.000,306.846 175.000 C 306.221 175.000,297.165 191.213,297.340 192.018 C 297.407 192.322,299.507 188.837,302.008 184.274 C 304.510 179.710,306.707 175.987,306.891 175.999 C 307.076 176.011,310.769 180.928,315.099 186.924 C 319.428 192.920,323.147 197.885,323.363 197.957 C 323.927 198.145,324.151 193.909,324.606 174.414 C 325.088 153.793,325.090 153.125,324.671 153.125 C 324.491 153.125,324.226 158.179,324.083 164.355 M244.954 189.365 C 239.945 198.517,239.392 199.609,239.768 199.609 C 240.289 199.609,247.731 186.007,247.581 185.327 C 247.515 185.029,246.333 186.846,244.954 189.365 M294.336 196.739 C 292.868 199.518,292.833 199.609,293.229 199.609 C 293.726 199.608,295.774 195.767,295.633 195.104 C 295.564 194.783,294.980 195.519,294.336 196.739 M229.311 217.873 C 224.269 227.057,218.519 237.527,216.532 241.141 C 214.545 244.755,213.133 247.642,213.393 247.557 C 213.818 247.419,238.995 202.176,239.043 201.465 C 239.126 200.234,237.353 203.222,229.311 217.873 M280.078 222.754 C 273.567 234.624,267.796 245.108,267.253 246.052 C 266.679 247.051,266.478 247.697,266.773 247.599 C 267.052 247.506,268.152 245.855,269.218 243.930 C 286.973 211.871,292.744 201.172,292.280 201.172 C 292.081 201.172,286.590 210.884,280.078 222.754 M210.234 252.637 C 205.473 261.090,204.578 262.938,205.028 263.387 C 205.355 263.715,205.469 263.689,205.469 263.288 C 205.469 262.822,209.025 256.075,212.011 250.879 C 212.536 249.966,212.784 249.219,212.562 249.219 C 212.340 249.219,211.293 250.757,210.234 252.637 M257.301 264.111 C 252.831 272.282,249.227 279.213,249.294 279.513 C 249.400 279.996,266.016 250.160,266.016 249.486 C 266.016 248.415,264.468 251.013,257.301 264.111 M243.821 288.718 C 241.819 292.387,240.280 295.489,240.403 295.611 C 240.814 296.022,247.764 283.429,247.583 282.602 C 247.516 282.297,245.823 285.049,243.821 288.718 M231.911 310.449 C 227.934 317.700,224.139 324.248,223.478 325.000 C 222.817 325.752,221.264 327.598,220.026 329.102 L 217.774 331.836 219.429 330.538 C 223.231 327.555,225.324 324.154,239.731 297.559 C 239.818 297.397,239.722 297.266,239.516 297.266 C 239.311 297.266,235.888 303.198,231.911 310.449 " stroke="none" fill="#9a9afc" fill-rule="evenodd"></path></g></svg>